<?xml version="1.0" encoding="utf-8"?>
<svg xmlns="http://www.w3.org/2000/svg">
<symbol id="facebook-messenger" viewBox="0 0 16 16">
  <path d="M0 7.76C0 3.301 3.493 0 8 0s8 3.301 8 7.76-3.493 7.76-8 7.76c-.81 0-1.586-.107-2.316-.307a.639.639 0 0 0-.427.03l-1.588.702a.64.64 0 0 1-.898-.566l-.044-1.423a.639.639 0 0 0-.215-.456C.956 12.108 0 10.092 0 7.76zm5.546-1.459-2.35 3.728c-.225.358.214.761.551.506l2.525-1.916a.48.48 0 0 1 .578-.002l1.869 1.402a1.2 1.2 0 0 0 1.735-.32l2.35-3.728c.226-.358-.214-.761-.551-.506L9.728 7.381a.48.48 0 0 1-.578.002L7.281 5.98a1.2 1.2 0 0 0-1.735.32z"/>

</symbol>
<symbol id="house" viewBox="0 0 576 512"><!--! Font Awesome Free 6.4.2 by @fontawesome - https://fontawesome.com License - https://fontawesome.com/license (Commercial License) Copyright 2023 Fonticons, Inc. --><path d="M575.8 255.5c0 18-15 32.1-32 32.1h-32l.7 160.2c0 2.7-.2 5.4-.5 8.1V472c0 22.1-17.9 40-40 40H456c-1.1 0-2.2 0-3.3-.1c-1.4 .1-2.8 .1-4.2 .1H416 392c-22.1 0-40-17.9-40-40V448 384c0-17.7-14.3-32-32-32H256c-17.7 0-32 14.3-32 32v64 24c0 22.1-17.9 40-40 40H160 128.1c-1.5 0-3-.1-4.5-.2c-1.2 .1-2.4 .2-3.6 .2H104c-22.1 0-40-17.9-40-40V360c0-.9 0-1.9 .1-2.8V287.6H32c-18 0-32-14-32-32.1c0-9 3-17 10-24L266.4 8c7-7 15-8 22-8s15 2 21 7L564.8 231.5c8 7 12 15 11 24z"/>
</symbol></svg>